<svg xmlns="http://www.w3.org/2000/svg" xmlns:xlink="http://www.w3.org/1999/xlink" width="13.252" height="24" viewBox="0 0 13.252 24"><defs><style>.a{fill:#2384e5;}.b{clip-path:url(#a);}.c{fill:#3b5999;}</style><clipPath id="a"><path class="a" d="M13.993,13.5l.687-4.343h-4.3V6.338a2.205,2.205,0,0,1,2.525-2.347h1.953V.293A24.536,24.536,0,0,0,11.394,0C7.856,0,5.543,2.08,5.543,5.846v3.31H1.609V13.5H5.543V24h4.841V13.5Z" transform="translate(802.891 334.535)"/></clipPath></defs><g class="b" transform="translate(-804.5 -334.535)"><path class="c" d="M16,3.985h2.191V.169A28.292,28.292,0,0,0,15,0C8.064,0,9.95,7.85,9.674,9H6.187v4.266H9.673V24h4.274V13.267h3.345L17.823,9H13.946c.188-2.824-.761-5.016,2.051-5.016Z" transform="translate(798.938 334.535)"/></g></svg>