<svg xmlns="http://www.w3.org/2000/svg" width="21.132" height="21.133" viewBox="0 0 21.132 21.133"><g transform="translate(0 0)"><g transform="translate(6.792 0)"><path d="M165.665,0h-9.812a2.264,2.264,0,0,0-2.264,2.264V6.793a.755.755,0,0,0,1.51,0V2.264a.755.755,0,0,1,.755-.755h9.812a.755.755,0,0,1,.755.755v16.6a.755.755,0,0,1-.755.755h-9.812a.755.755,0,0,1-.755-.755V14.34a.755.755,0,1,0-1.51,0v4.528a2.264,2.264,0,0,0,2.264,2.264h9.812a2.264,2.264,0,0,0,2.264-2.264V2.264A2.264,2.264,0,0,0,165.665,0Z" transform="translate(-153.589)"/></g><g transform="translate(0 6.047)"><g transform="translate(0)"><path d="M15.1,140.508H2.586l2.485-2.485A.755.755,0,0,0,4,136.956L.231,140.729a.746.746,0,0,0-.163.245.757.757,0,0,0,.164.823l3.774,3.774a.755.755,0,0,0,1.086-1.049l-.019-.019-2.486-2.486H15.1a.755.755,0,1,0,0-1.509Z" transform="translate(-0.011 -136.744)"/></g></g></g></svg>