<svg xmlns="http://www.w3.org/2000/svg" xmlns:xlink="http://www.w3.org/1999/xlink" width="24" height="24" viewBox="0 0 24 24"><defs><style>.a{fill:#2384e5;}.b{clip-path:url(#a);}.c{fill:#59c36a;}.d{fill:#00a66c;}.e{fill:#ffda2d;}.f{fill:#4086f4;}.g{fill:#4175df;}.h{fill:#ff641a;}.i{fill:#f03800;}</style><clipPath id="a"><path class="a" d="M24,12.843c0,6.847-4.766,11.719-11.8,11.719a12.085,12.085,0,0,1-12.2-12,12.085,12.085,0,0,1,12.2-12A11.834,11.834,0,0,1,20.375,3.7l-3.32,3.14C12.713,2.721,4.638,5.817,4.638,12.563A7.577,7.577,0,0,0,12.2,20.14c4.83,0,6.639-3.406,6.925-5.173H12.2V10.84H23.808A10.356,10.356,0,0,1,24,12.843Z" transform="translate(948.445 334.972)"/></clipPath></defs><g class="b" transform="translate(-948.445 -335.535)"><g transform="translate(948.445 335.535)"><path class="c" d="M19.72,21.127A11.982,11.982,0,0,1,12,24,12,12,0,0,1,1.706,18.075l.779-3.592,3.454-.641A6.373,6.373,0,0,0,12,18.328a6.237,6.237,0,0,0,3.713-1.209l3.319.506Z"/><path class="d" d="M19.72,21.127l-.689-3.5-3.319-.506A6.237,6.237,0,0,1,12,18.328V24A11.982,11.982,0,0,0,19.72,21.127Z"/><path class="e" d="M5.672,12a6.554,6.554,0,0,0,.267,1.842L1.706,18.075A11.882,11.882,0,0,1,0,12,11.882,11.882,0,0,1,1.706,5.925l3.4.585.836,3.648A6.553,6.553,0,0,0,5.672,12Z"/><path class="f" d="M24,12a11.981,11.981,0,0,1-4.28,9.127l-4.008-4.008a6.222,6.222,0,0,0,1.955-2.306H12a.7.7,0,0,1-.7-.7V9.891a.7.7,0,0,1,.7-.7H23.1a.7.7,0,0,1,.689.577A11.924,11.924,0,0,1,24,12Z"/><path class="g" d="M17.667,14.813a6.223,6.223,0,0,1-1.955,2.306l4.008,4.008A11.885,11.885,0,0,0,23.789,9.764a.7.7,0,0,0-.689-.577H12v5.625Z"/><path class="h" d="M19.917,3.352a.71.71,0,0,1-.2.52l-3.009,3a.689.689,0,0,1-.914.07A6.29,6.29,0,0,0,12,5.672a6.373,6.373,0,0,0-6.061,4.486L1.706,5.925A12,12,0,0,1,12,0a11.964,11.964,0,0,1,7.664,2.831.739.739,0,0,1,.253.52Z"/><path class="i" d="M15.8,6.937a.689.689,0,0,0,.914-.07l3.009-3a.709.709,0,0,0,.2-.52.74.74,0,0,0-.253-.52A11.964,11.964,0,0,0,12,0V5.672A6.29,6.29,0,0,1,15.8,6.937Z"/></g></g></svg>