<svg xmlns="http://www.w3.org/2000/svg" width="24" height="24" viewBox="0 0 24 24"><defs><style>.a{fill:#2384e5;}</style></defs><g transform="translate(0)"><g transform="translate(0)"><g transform="translate(0 0)"><path class="a" d="M147.63,218.936h-4.312a.653.653,0,0,0-.653.653v8.461a.653.653,0,0,0,.653.653h4.312a.653.653,0,0,0,.653-.653v-8.461A.653.653,0,0,0,147.63,218.936Zm-.653,8.461h-3.006v-7.155h3.006Z" transform="translate(-133.472 -204.704)"/><path class="a" d="M284.021,136.911h-4.345a.653.653,0,0,0-.653.653v13.591a.653.653,0,0,0,.653.653h4.345a.653.653,0,0,0,.653-.653V137.564A.653.653,0,0,0,284.021,136.911Zm-.653,13.591H280.33V138.218h3.038Z" transform="translate(-260.909 -127.808)"/><path class="a" d="M10.78,269.613H6.435a.653.653,0,0,0-.653.653v5.292a.653.653,0,0,0,.653.653H10.78a.653.653,0,0,0,.653-.653v-5.292A.653.653,0,0,0,10.78,269.613Zm-.653,5.292H7.089V270.92h3.038v3.986Z" transform="translate(-5.546 -252.212)"/><path class="a" d="M25.829.655a.58.58,0,0,0-.439-.229L19.241,0a.671.671,0,0,0-.726.6.663.663,0,0,0,.625.7l4.352.286-8,6.052L9.376,3.008A.693.693,0,0,0,8.5,3.04L2.213,8.855a.638.638,0,0,0-.034.915A.616.616,0,0,0,2.686,10a.687.687,0,0,0,.473-.2L9,4.38l6.047,4.606a.694.694,0,0,0,.845,0l8.649-6.508-.338,4.058a.7.7,0,0,0,.642.686h.034a.668.668,0,0,0,.676-.588L26,1.113A.513.513,0,0,0,25.829.655Z" transform="translate(-2.003 0)"/></g></g></g></svg>