<svg xmlns="http://www.w3.org/2000/svg" width="18.772" height="12.602" viewBox="0 0 18.772 12.602">
  <g id="Сгруппировать_10892" data-name="Сгруппировать 10892" transform="translate(-893.749 -645.17)">
    <g id="eye_3_" data-name="eye (3)" transform="translate(893.749 552.335)">
      <g id="Сгруппировать_10783" data-name="Сгруппировать 10783" transform="translate(0 92.835)">
        <g id="Сгруппировать_10782" data-name="Сгруппировать 10782">
          <path id="Контур_1981" data-name="Контур 1981" d="M18.653,98.751c-.168-.242-4.163-5.916-9.267-5.916S.287,98.51.119,98.751a.681.681,0,0,0,0,.769c.168.242,4.163,5.916,9.267,5.916s9.1-5.675,9.267-5.916A.68.68,0,0,0,18.653,98.751Zm-9.267,5.382c-3.759,0-7.015-3.766-7.979-5,.963-1.232,4.212-5,7.979-5s7.015,3.766,7.979,5C16.4,100.369,13.153,104.133,9.386,104.133Z" transform="translate(0 -92.835)" fill="#707070"/>
        </g>
      </g>
      <g id="Сгруппировать_10785" data-name="Сгруппировать 10785" transform="translate(5.475 95.225)">
        <g id="Сгруппировать_10784" data-name="Сгруппировать 10784">
          <path id="Контур_1982" data-name="Контур 1982" d="M158.633,154.725a3.911,3.911,0,1,0,3.911,3.911A3.915,3.915,0,0,0,158.633,154.725Zm0,6.518a2.607,2.607,0,1,1,2.607-2.607A2.61,2.61,0,0,1,158.633,161.243Z" transform="translate(-154.722 -154.725)" fill="#707070"/>
        </g>
      </g>
    </g>
  </g>
</svg>
