<svg xmlns="http://www.w3.org/2000/svg" width="24" height="24" viewBox="0 0 24 24">
  <g id="trash" transform="translate(0)">
    <g id="Сгруппировать_10863" data-name="Сгруппировать 10863" transform="translate(0)">
      <g id="Сгруппировать_10862" data-name="Сгруппировать 10862" transform="translate(0)">
        <path id="Контур_2016" data-name="Контур 2016" d="M40.143,3.429H33.681V2.571A2.676,2.676,0,0,0,30.912,0H27.22a2.676,2.676,0,0,0-2.769,2.571v.857H17.989a.892.892,0,0,0-.923.857.892.892,0,0,0,.923.857h1l1.766,18.078a.9.9,0,0,0,.923.779H36.451a.9.9,0,0,0,.923-.779L39.139,5.143h1a.892.892,0,0,0,.923-.857A.892.892,0,0,0,40.143,3.429ZM26.3,2.571a.892.892,0,0,1,.923-.857h3.692a.892.892,0,0,1,.923.857v.857H26.3V2.571Zm9.311,19.714H22.524L20.851,5.143H37.286Z" transform="translate(-17.066)" fill="#919191"/>
      </g>
    </g>
    <g id="Сгруппировать_10865" data-name="Сгруппировать 10865" transform="translate(6.483 6.046)">
      <g id="Сгруппировать_10864" data-name="Сгруппировать 10864" transform="translate(0)">
        <path id="Контур_2017" data-name="Контур 2017" d="M139.185,149.9v0l-.9-12.566a.9.9,0,0,0-1.8.127l.9,12.566a.9.9,0,0,0,.9.834h.065A.9.9,0,0,0,139.185,149.9Z" transform="translate(-136.489 -136.49)" fill="#919191"/>
      </g>
    </g>
    <g id="Сгруппировать_10867" data-name="Сгруппировать 10867" transform="translate(11.103 6.049)">
      <g id="Сгруппировать_10866" data-name="Сгруппировать 10866">
        <path id="Контур_2018" data-name="Контур 2018" d="M222.764,136.533a.9.9,0,0,0-.9.9V150a.9.9,0,0,0,1.8,0V137.431A.9.9,0,0,0,222.764,136.533Z" transform="translate(-221.866 -136.533)" fill="#919191"/>
      </g>
    </g>
    <g id="Сгруппировать_10869" data-name="Сгруппировать 10869" transform="translate(14.82 6.046)">
      <g id="Сгруппировать_10868" data-name="Сгруппировать 10868">
        <path id="Контур_2019" data-name="Контур 2019" d="M291.948,136.492a.9.9,0,0,0-.961.834l-.9,12.566a.9.9,0,0,0,.829.961h.068a.9.9,0,0,0,.9-.834l.9-12.566A.9.9,0,0,0,291.948,136.492Z" transform="translate(-290.086 -136.489)" fill="#919191"/>
      </g>
    </g>
  </g>
</svg>
