<svg xmlns="http://www.w3.org/2000/svg" xmlns:xlink="http://www.w3.org/1999/xlink" width="24" height="20" viewBox="0 0 24 20"><defs><style>.a{fill:#2384e5;}.b{clip-path:url(#a);}.c{fill:#03a9f4;}</style><clipPath id="a"><path class="a" d="M25.413,6.87a9.773,9.773,0,0,1-2.828.8,5.041,5.041,0,0,0,2.167-2.792A9.646,9.646,0,0,1,21.624,6.1a4.865,4.865,0,0,0-3.6-1.6,4.985,4.985,0,0,0-4.923,5.047,5.05,5.05,0,0,0,.127,1.151A13.849,13.849,0,0,1,3.081,5.422a5.141,5.141,0,0,0-.666,2.536,5.089,5.089,0,0,0,2.2,4.2,4.723,4.723,0,0,1-2.238-.63v.063a5.018,5.018,0,0,0,3.952,4.948,4.847,4.847,0,0,1-1.3.177,4.54,4.54,0,0,1-.926-.094,4.948,4.948,0,0,0,4.6,3.505,9.7,9.7,0,0,1-7.293,2.089A13.531,13.531,0,0,0,8.95,24.5c9.068,0,14.022-7.693,14.022-14.365,0-.219-.005-.438-.015-.651A10.161,10.161,0,0,0,25.413,6.87Z" transform="translate(1096.587 332.5)"/></clipPath></defs><g class="b" transform="translate(-1098 -337)"><path class="c" d="M24,4.559a10.258,10.258,0,0,1-2.835.777,4.893,4.893,0,0,0,2.164-2.72,9.833,9.833,0,0,1-3.12,1.191A4.92,4.92,0,0,0,11.7,7.172a5.066,5.066,0,0,0,.114,1.122A13.927,13.927,0,0,1,1.671,3.147,4.922,4.922,0,0,0,3.183,9.723,4.859,4.859,0,0,1,.96,9.117v.054A4.943,4.943,0,0,0,4.9,14.005a4.911,4.911,0,0,1-1.29.162,4.35,4.35,0,0,1-.932-.084,4.967,4.967,0,0,0,4.6,3.427,9.886,9.886,0,0,1-6.1,2.1A9.216,9.216,0,0,1,0,19.542,13.852,13.852,0,0,0,7.548,21.75a13.907,13.907,0,0,0,14-14c0-.217-.007-.427-.018-.636A9.816,9.816,0,0,0,24,4.559Z" transform="translate(1098 335)"/></g></svg>