<svg xmlns="http://www.w3.org/2000/svg" width="24.047" height="28.823" viewBox="0 0 24.047 28.823"><defs><style>.a{fill:#2384e5;}</style></defs><g transform="translate(0 0)"><path class="a" d="M93.974,13.885a6.718,6.718,0,0,0,4.909-2.034,6.718,6.718,0,0,0,2.034-4.908,6.718,6.718,0,0,0-2.034-4.908,6.941,6.941,0,0,0-9.817,0,6.717,6.717,0,0,0-2.034,4.908,6.718,6.718,0,0,0,2.034,4.909,6.72,6.72,0,0,0,4.908,2.034ZM90.26,3.228a5.251,5.251,0,0,1,7.428,0,5.019,5.019,0,0,1,1.539,3.714,5.019,5.019,0,0,1-1.539,3.714,5.251,5.251,0,0,1-7.428,0,5.018,5.018,0,0,1-1.539-3.714A5.018,5.018,0,0,1,90.26,3.228Zm0,0" transform="translate(-82.132)"/><path class="a" d="M23.989,255.557a17.148,17.148,0,0,0-.234-1.821,14.349,14.349,0,0,0-.448-1.831,9.045,9.045,0,0,0-.753-1.708,6.437,6.437,0,0,0-1.135-1.479,5,5,0,0,0-1.631-1.025,5.635,5.635,0,0,0-2.082-.377,2.113,2.113,0,0,0-1.128.479c-.338.221-.734.476-1.175.758a6.735,6.735,0,0,1-1.521.67,5.906,5.906,0,0,1-3.72,0,6.715,6.715,0,0,1-1.52-.67c-.437-.279-.833-.535-1.176-.758a2.11,2.11,0,0,0-1.128-.479,5.628,5.628,0,0,0-2.081.377,5,5,0,0,0-1.631,1.025A6.439,6.439,0,0,0,1.491,250.2a9.062,9.062,0,0,0-.753,1.708,14.383,14.383,0,0,0-.448,1.831,17.03,17.03,0,0,0-.234,1.822c-.038.55-.058,1.123-.058,1.7a4.786,4.786,0,0,0,1.421,3.621,5.117,5.117,0,0,0,3.663,1.336H18.963a5.117,5.117,0,0,0,3.663-1.336,4.784,4.784,0,0,0,1.422-3.621c0-.581-.02-1.154-.058-1.7Zm-2.528,4.1a3.445,3.445,0,0,1-2.5.871H5.084a3.445,3.445,0,0,1-2.5-.87,3.125,3.125,0,0,1-.9-2.4c0-.54.018-1.073.053-1.585a15.361,15.361,0,0,1,.211-1.64,12.686,12.686,0,0,1,.394-1.614,7.378,7.378,0,0,1,.613-1.389,4.773,4.773,0,0,1,.834-1.093,3.32,3.32,0,0,1,1.085-.674,3.887,3.887,0,0,1,1.33-.257c.059.031.164.091.335.2.347.226.747.484,1.19.767a8.369,8.369,0,0,0,1.909.853,7.593,7.593,0,0,0,4.759,0,8.378,8.378,0,0,0,1.91-.854c.453-.289.842-.54,1.189-.767.171-.111.276-.171.335-.2a3.89,3.89,0,0,1,1.331.257,3.325,3.325,0,0,1,1.085.674,4.76,4.76,0,0,1,.834,1.093,7.353,7.353,0,0,1,.613,1.388,12.656,12.656,0,0,1,.394,1.614,15.487,15.487,0,0,1,.211,1.641h0c.036.51.054,1.043.054,1.585a3.125,3.125,0,0,1-.9,2.4Zm0,0" transform="translate(0 -233.393)"/></g></svg>