<svg xmlns="http://www.w3.org/2000/svg" width="22.243" height="26.661" viewBox="0 0 22.243 26.661"><defs><style>.a{fill:#fff;}</style></defs><g transform="translate(0 0)"><path class="a" d="M93.453,12.843a6.214,6.214,0,0,0,4.54-1.881,6.214,6.214,0,0,0,1.881-4.54,6.214,6.214,0,0,0-1.881-4.54,6.42,6.42,0,0,0-9.08,0,6.213,6.213,0,0,0-1.881,4.54,6.214,6.214,0,0,0,1.881,4.54,6.215,6.215,0,0,0,4.54,1.881ZM90.018,2.986a4.857,4.857,0,0,1,6.871,0,4.642,4.642,0,0,1,1.424,3.435,4.642,4.642,0,0,1-1.424,3.435,4.857,4.857,0,0,1-6.871,0,4.641,4.641,0,0,1-1.424-3.435,4.642,4.642,0,0,1,1.424-3.435Zm0,0" transform="translate(-82.5 0)"/><path class="a" d="M22.189,254.939a15.861,15.861,0,0,0-.216-1.685,13.272,13.272,0,0,0-.414-1.694,8.366,8.366,0,0,0-.7-1.58,5.953,5.953,0,0,0-1.05-1.368,4.629,4.629,0,0,0-1.508-.948,5.212,5.212,0,0,0-1.925-.348,1.954,1.954,0,0,0-1.044.443c-.313.2-.679.44-1.087.7a6.23,6.23,0,0,1-1.407.62,5.463,5.463,0,0,1-3.441,0,6.21,6.21,0,0,1-1.406-.62c-.4-.258-.771-.494-1.088-.7a1.952,1.952,0,0,0-1.043-.443,5.205,5.205,0,0,0-1.925.349,4.625,4.625,0,0,0-1.508.948,5.956,5.956,0,0,0-1.05,1.368,8.382,8.382,0,0,0-.7,1.58,13.3,13.3,0,0,0-.414,1.694,15.752,15.752,0,0,0-.216,1.685c-.035.509-.053,1.039-.053,1.574a4.427,4.427,0,0,0,1.315,3.349A4.733,4.733,0,0,0,4.7,261.1H17.54a4.733,4.733,0,0,0,3.388-1.236,4.425,4.425,0,0,0,1.315-3.349c0-.537-.018-1.067-.054-1.575Zm-2.338,3.792a3.187,3.187,0,0,1-2.311.805H4.7a3.187,3.187,0,0,1-2.311-.805,2.891,2.891,0,0,1-.83-2.217c0-.5.016-.993.049-1.466a14.209,14.209,0,0,1,.2-1.517,11.734,11.734,0,0,1,.364-1.493,6.823,6.823,0,0,1,.567-1.285,4.414,4.414,0,0,1,.772-1.011,3.071,3.071,0,0,1,1-.624,3.6,3.6,0,0,1,1.23-.237c.055.029.152.085.31.188.321.209.691.448,1.1.709a7.741,7.741,0,0,0,1.766.789,7.024,7.024,0,0,0,4.4,0,7.748,7.748,0,0,0,1.767-.79c.419-.268.779-.5,1.1-.709.158-.1.255-.158.31-.188a3.6,3.6,0,0,1,1.231.237,3.075,3.075,0,0,1,1,.624,4.4,4.4,0,0,1,.772,1.011,6.8,6.8,0,0,1,.567,1.284,11.706,11.706,0,0,1,.364,1.493,14.325,14.325,0,0,1,.2,1.518h0c.033.472.05.965.05,1.466a2.891,2.891,0,0,1-.83,2.217Zm0,0" transform="translate(0 -234.438)"/></g></svg>